<svg width="10" height="11" viewBox="0 0 10 11" fill="none" xmlns="http://www.w3.org/2000/svg">
<path d="M6.25 0.25H9.375C9.70703 0.25 10 0.542969 10 0.875V4C10 4.35156 9.70703 4.625 9.375 4.625C9.02344 4.625 8.75 4.35156 8.75 4V2.39844L4.80469 6.32422C4.57031 6.57812 4.16016 6.57812 3.92578 6.32422C3.67188 6.08984 3.67188 5.67969 3.92578 5.44531L7.85156 1.5H6.25C5.89844 1.5 5.625 1.22656 5.625 0.875C5.625 0.542969 5.89844 0.25 6.25 0.25ZM1.5625 0.875H3.75C4.08203 0.875 4.375 1.16797 4.375 1.5C4.375 1.85156 4.08203 2.125 3.75 2.125H1.5625C1.38672 2.125 1.25 2.28125 1.25 2.4375V8.6875C1.25 8.86328 1.38672 9 1.5625 9H7.8125C7.96875 9 8.125 8.86328 8.125 8.6875V6.5C8.125 6.16797 8.39844 5.875 8.75 5.875C9.08203 5.875 9.375 6.16797 9.375 6.5V8.6875C9.375 9.56641 8.67188 10.25 7.8125 10.25H1.5625C0.683594 10.25 0 9.56641 0 8.6875V2.4375C0 1.57812 0.683594 0.875 1.5625 0.875Z" fill="#1C1E21"/>
</svg>
