<?xml version="1.0" encoding="UTF-8"?>
<svg width="60px" height="52px" viewBox="0 0 60 52" version="1.1" xmlns="http://www.w3.org/2000/svg" xmlns:xlink="http://www.w3.org/1999/xlink">
    <title>Shape</title>
    <g id="Page-1" stroke="none" stroke-width="1" fill="none" fill-rule="evenodd">
        <g id="Artboard" transform="translate(-234, -113)" fill="#000000" fill-rule="nonzero">
            <path d="M285,113 L243,113 C238.029437,113 234,117.029437 234,122 L234,156 C234,160.970563 238.029437,165 243,165 L285,165 C287.386948,165 289.676134,164.051788 291.363961,162.363961 C293.051788,160.676134 294,158.386948 294,156 L294,122 C294,119.613052 293.051788,117.323866 291.363961,115.636039 C289.676134,113.948212 287.386948,113 285,113 Z M243,119 L285,119 C286.656854,119 288,120.343146 288,122 L288,125.59 L269.51,138.23 C266.203176,140.608168 261.746824,140.608168 258.44,138.23 L240,125.59 L240,122 C240,120.343146 241.343146,119 243,119 Z M285,159 L243,159 C241.343146,159 240,157.656854 240,156 L240,132.86 L255,143.12 C260.372636,146.943089 267.577364,146.943089 272.95,143.12 L288,132.86 L288,156 C288,157.656854 286.656854,159 285,159 Z" id="Shape"></path>
        </g>
    </g>
</svg>