<svg width="110" height="36" viewBox="0 0 110 36" fill="none" xmlns="http://www.w3.org/2000/svg">
<path d="M45 11.02H48.5329V27.8206H45V11.02Z" fill="#F2F2F2"/>
<path d="M50.7349 13.374C50.3279 12.9973 50.1235 12.5283 50.1235 11.9704C50.1235 11.4125 50.3279 10.9434 50.7349 10.5668C51.1418 10.1901 51.6714 10 52.32 10C52.9687 10 53.4982 10.1812 53.9052 10.5437C54.3121 10.9061 54.5165 11.3592 54.5165 11.9029C54.5165 12.4909 54.3121 12.9778 53.9052 13.3633C53.4982 13.7489 52.9687 13.9407 52.32 13.9407C51.6714 13.9407 51.1418 13.7524 50.7349 13.374ZM50.5536 15.6375H54.0865V27.8204H50.5536V15.6375Z" fill="#F2F2F2"/>
<path d="M66.3999 16.2382C67.3294 16.7588 68.0562 17.4908 68.5858 18.4342C69.1136 19.3776 69.3783 20.4757 69.3783 21.7282C69.3783 22.9808 69.1136 24.0788 68.5858 25.0222C68.0562 25.9657 67.3294 26.6977 66.3999 27.2183C65.4723 27.7388 64.4416 28 63.3078 28C61.632 28 60.356 27.4723 59.4799 26.4152V27.8188H56.1052V11.02H59.6381V16.9293C60.5284 15.9486 61.7511 15.4582 63.3078 15.4582C64.4398 15.4582 65.4705 15.7176 66.3999 16.24V16.2382ZM64.9285 24.1854C65.5096 23.5742 65.8011 22.7552 65.8011 21.7282C65.8011 20.7013 65.5096 19.8822 64.9285 19.271C64.3474 18.6599 63.6028 18.3543 62.6982 18.3543C61.7937 18.3543 61.0491 18.6599 60.468 19.271C59.8869 19.8822 59.5954 20.7013 59.5954 21.7282C59.5954 22.7552 59.8869 23.5742 60.468 24.1854C61.0491 24.7966 61.7937 25.1022 62.6982 25.1022C63.6028 25.1022 64.3474 24.7966 64.9285 24.1854Z" fill="#F2F2F2"/>
<path d="M70.47 11.02H74.0028V27.8206H70.47V11.02Z" fill="#F2F2F2"/>
<path d="M90.3208 23.0417V15.6777H94.0258V27.8182H90.4878V25.7578H90.3663C90.1082 26.435 89.6678 26.9729 89.0453 27.3716C88.4278 27.7654 87.6812 27.9623 86.8056 27.9623C86.0109 27.9623 85.3124 27.7894 84.7101 27.4436C84.1078 27.0978 83.6396 26.6151 83.3056 25.9955C82.9715 25.3711 82.8019 24.6411 82.7969 23.8053V15.6777H86.5095V23.1137C86.5145 23.7141 86.6816 24.1872 87.0106 24.533C87.3396 24.8788 87.7875 25.0517 88.3544 25.0517C88.7239 25.0517 89.0554 24.9749 89.349 24.8212C89.6476 24.6627 89.8829 24.4345 90.055 24.1367C90.2322 23.8341 90.3208 23.4691 90.3208 23.0417Z" fill="#F2F2F2"/>
<path d="M74.143 20.3949V27.8279H70.4834L70.4834 11.0806H74.0233V17.6637H74.1505C74.41 16.9798 74.834 16.4451 75.4228 16.0597C76.0165 15.6744 76.7424 15.4817 77.6006 15.4817C78.4089 15.4817 79.1124 15.6551 79.7111 16.0019C80.3098 16.3439 80.7738 16.828 81.1031 17.4542C81.4374 18.0804 81.602 18.8126 81.597 19.6507V27.8279H77.9374V20.3443C77.9424 19.7278 77.7827 19.2461 77.4584 18.8993C77.1341 18.5525 76.6776 18.379 76.0889 18.379C75.7047 18.379 75.3654 18.4609 75.071 18.6247C74.7817 18.7837 74.5546 19.0125 74.39 19.3111C74.2303 19.6097 74.148 19.971 74.143 20.3949Z" fill="#F2F2F2"/>
<path d="M106.249 16.2382C107.178 16.7588 107.905 17.4908 108.435 18.4342C108.962 19.3776 109.227 20.4757 109.227 21.7282C109.227 22.9808 108.962 24.0788 108.435 25.0222C107.905 25.9657 107.178 26.6977 106.249 27.2183C105.321 27.7388 104.29 28 103.157 28C101.481 28 100.205 27.4723 99.3288 26.4152V27.8188H95.9541V11.02H99.487V16.9293C100.377 15.9486 101.6 15.4582 103.157 15.4582C104.289 15.4582 105.319 15.7176 106.249 16.24V16.2382ZM104.777 24.1854C105.358 23.5742 105.65 22.7552 105.65 21.7282C105.65 20.7013 105.358 19.8822 104.777 19.271C104.196 18.6599 103.452 18.3543 102.547 18.3543C101.643 18.3543 100.898 18.6599 100.317 19.271C99.7358 19.8822 99.4443 20.7013 99.4443 21.7282C99.4443 22.7552 99.7358 23.5742 100.317 24.1854C100.898 24.7966 101.643 25.1022 102.547 25.1022C103.452 25.1022 104.196 24.7966 104.777 24.1854Z" fill="#F2F2F2"/>
<path d="M9 33.75H13.5V36.0001H9V33.75Z" fill="#F2F2F2"/>
<path fill-rule="evenodd" clip-rule="evenodd" d="M5.625 13.8706V18.0001C5.625 21.3751 4.5 22.5001 1.125 22.5001H0V20.2501H1.125C2.8125 20.2501 3.375 19.6876 3.375 18.0001V13.8706H5.625Z" fill="#F2F2F2"/>
<path fill-rule="evenodd" clip-rule="evenodd" d="M5.625 28.8796V24.7502C5.625 21.3752 4.5 20.2502 1.125 20.2502H0V22.5002H1.125C2.8125 22.5002 3.375 23.0627 3.375 24.7502V28.8796H5.625Z" fill="#F2F2F2"/>
<path fill-rule="evenodd" clip-rule="evenodd" d="M3.375 27L3.375 30.375C3.375 34.875 5.625 36 9 36L9 33.75C6.75 33.75 5.625 33.1875 5.625 30.375L5.625 27L3.375 27Z" fill="#F2F2F2"/>
<path d="M9 7.875H13.5V5.62494H9V7.875Z" fill="#F2F2F2"/>
<path fill-rule="evenodd" clip-rule="evenodd" d="M3.375 14.625L3.375 11.25C3.375 6.75 5.625 5.625 9 5.625L9 7.875C6.75 7.875 5.625 8.4375 5.625 11.25L5.625 14.625L3.375 14.625Z" fill="#F2F2F2"/>
<path d="M27 33.75H22.5V36.0001H27V33.75Z" fill="#F2F2F2"/>
<path fill-rule="evenodd" clip-rule="evenodd" d="M30.375 13.8706V18.0001C30.375 21.3751 31.5 22.5001 34.875 22.5001H36V20.2501H34.875C33.1875 20.2501 32.625 19.6876 32.625 18.0001V13.8706H30.375Z" fill="#F2F2F2"/>
<path fill-rule="evenodd" clip-rule="evenodd" d="M30.375 28.8796V24.7502C30.375 21.3752 31.5 20.2502 34.875 20.2502H36V22.5002H34.875C33.1875 22.5002 32.625 23.0627 32.625 24.7502V28.8796H30.375Z" fill="#F2F2F2"/>
<path fill-rule="evenodd" clip-rule="evenodd" d="M32.625 27L32.625 30.375C32.625 34.875 30.375 36 27 36L27 33.75C29.25 33.75 30.375 33.1875 30.375 30.375L30.375 27L32.625 27Z" fill="#F2F2F2"/>
<path d="M27 7.875H22.5V5.62494H27V7.875Z" fill="#F2F2F2"/>
<path fill-rule="evenodd" clip-rule="evenodd" d="M32.625 14.625L32.625 11.25C32.625 6.75 30.375 5.625 27 5.625L27 7.875C29.25 7.875 30.375 8.4375 30.375 11.25L30.375 14.625L32.625 14.625Z" fill="#F2F2F2"/>
<path fill-rule="evenodd" clip-rule="evenodd" d="M5.625 0V11.25L4.68494 11.0633C2.00758 10.5317 0 8.29949 0 5.62427C0 2.94801 2.00856 0.721854 4.68413 0.187802L5.625 0Z" fill="#F2F2F2"/>
<path fill-rule="evenodd" clip-rule="evenodd" d="M12.4784 25.7703C12.4784 27.0332 13.5396 28.0577 14.8478 28.0577C16.1561 28.0577 17.2173 27.0332 17.2173 25.7703H18.7201C18.7201 27.8345 16.9861 29.5085 14.8478 29.5085C12.7096 29.5085 10.9756 27.8345 10.9756 25.7703H12.4784Z" fill="#F2F2F2"/>
<path fill-rule="evenodd" clip-rule="evenodd" d="M18.7201 25.7703C18.7201 27.0332 19.7813 28.0577 21.0895 28.0577C22.3978 28.0577 23.459 27.0332 23.459 25.7703H24.9618C24.9618 27.8345 23.2278 29.5085 21.0895 29.5085C18.9513 29.5085 17.2173 27.8345 17.2173 25.7703H18.7201Z" fill="#F2F2F2"/>
<path fill-rule="evenodd" clip-rule="evenodd" d="M17.9687 21.5345L14.8432 20.0259L14.1711 21.3235L17.9687 23.1566L21.7662 21.3235L21.0941 20.0259L17.9687 21.5345Z" fill="#F2F2F2"/>
<path d="M22.9381 17.251C23.9908 17.251 24.8441 16.4272 24.8441 15.4109C24.8441 14.3947 23.9908 13.5708 22.9381 13.5708C21.8854 13.5708 21.032 14.3947 21.032 15.4109C21.032 16.4272 21.8854 17.251 22.9381 17.251Z" fill="#F2F2F2"/>
<path d="M12.9993 17.251C14.052 17.251 14.9054 16.4272 14.9054 15.4109C14.9054 14.3947 14.052 13.5708 12.9993 13.5708C11.9466 13.5708 11.0933 14.3947 11.0933 15.4109C11.0933 16.4272 11.9466 17.251 12.9993 17.251Z" fill="#F2F2F2"/>
<path fill-rule="evenodd" clip-rule="evenodd" d="M17.2173 25.8693V22.3462H18.7201V25.8693H17.2173Z" fill="#F2F2F2"/>
<path fill-rule="evenodd" clip-rule="evenodd" d="M30.3574 0L31.2983 0.187802C33.9739 0.721855 35.9824 2.94801 35.9824 5.62427C35.9824 8.29949 33.9748 10.5317 31.2975 11.0633L30.3574 11.25V0Z" fill="#F2F2F2"/>
</svg>
