<svg width="96" height="24" viewBox="0 0 96 24" fill="none" xmlns="http://www.w3.org/2000/svg">
<path fill-rule="evenodd" clip-rule="evenodd" d="M3.61223 0V5.42734C4.1375 4.94751 4.83657 4.65493 5.60349 4.65493H8.52628V5.6169H5.60349C4.50453 5.6169 3.6122 6.50802 3.6122 7.60818V9.19707H3.61381V11.7896C3.61381 12.8248 3.08122 13.7351 2.27567 14.2623C3.08074 14.7901 3.6122 15.7004 3.6122 16.7341L3.6122 18.9451V20.9171C3.6122 22.0161 4.50333 22.9084 5.60349 22.9084H8.52628V23.8703H5.60349C3.97164 23.8703 2.65023 22.5469 2.65023 20.9171L2.65023 19.7659V16.7341C2.65023 15.6393 1.76596 14.7497 0.67165 14.7428L0.660553 14.7428H0V14.7428V13.7809V13.7808H0.65895L0.671964 13.7808C1.76568 13.7747 2.65183 12.8859 2.65183 11.7896V10.4476H2.65023V7.60818C2.65023 7.46 2.66114 7.31438 2.68221 7.17208C1.20719 6.7031 0.13951 5.32331 0.13951 3.69297C0.13951 1.9357 1.37954 0.473978 3.03136 0.123313L3.61223 0ZM2.65026 1.25916C1.73444 1.68827 1.10148 2.61621 1.10148 3.69297C1.10148 4.77032 1.7349 5.70006 2.65026 6.12879V1.25916ZM19.4302 19.7659V20.9171C19.4302 22.0161 18.5391 22.9084 17.439 22.9084H14.5178V23.8703H17.439C19.0708 23.8703 20.3922 22.5469 20.3922 20.9171V18.9451H20.3922V16.7341C20.3922 15.6391 21.2768 14.7493 22.3714 14.7428L22.3835 14.7428H23.044V14.7428V13.7809V13.7808H22.3835L22.3714 13.7808C21.278 13.7743 20.3922 12.8857 20.3922 11.7896V10.4476H20.3938V7.60818C20.3938 7.46 20.3829 7.31438 20.3618 7.17208C21.8369 6.7031 22.9045 5.32331 22.9045 3.69297C22.9045 1.9357 21.6645 0.473978 20.0127 0.123313L19.4318 0V5.42735C18.9066 4.94751 18.2075 4.65493 17.4406 4.65493H14.5178V5.6169H17.4406C18.5395 5.6169 19.4318 6.50802 19.4318 7.60818V9.19707H19.4302V11.7896C19.4302 12.8244 19.9625 13.7345 20.7675 14.2618C19.962 14.7894 19.4302 15.7001 19.4302 16.7341V19.7659H19.4302ZM9.50426 18.6035C8.66683 18.6035 7.98755 17.9243 7.98755 17.0868H7.02557C7.02557 18.4555 8.13555 19.5655 9.50426 19.5655C10.3239 19.5655 11.0507 19.1675 11.502 18.5542C11.9532 19.1675 12.6801 19.5655 13.4997 19.5655C14.8684 19.5655 15.9784 18.4555 15.9784 17.0868H15.0164C15.0164 17.9243 14.3371 18.6035 13.4997 18.6035C12.6622 18.6035 11.983 17.9243 11.983 17.0868V15.1138L13.9328 14.1389L13.5026 13.2785L11.502 14.2788L9.50132 13.2785L9.07111 14.1389L11.021 15.1138V17.0868H11.021C11.021 17.9243 10.3417 18.6035 9.50426 18.6035ZM14.6829 11.4385C15.3567 11.4385 15.903 10.8922 15.903 10.2184C15.903 9.54453 15.3567 8.99827 14.6829 8.99827C14.009 8.99827 13.4628 9.54453 13.4628 10.2184C13.4628 10.8922 14.009 11.4385 14.6829 11.4385ZM9.54117 10.2184C9.54117 10.8922 8.99491 11.4385 8.32107 11.4385C7.64722 11.4385 7.10096 10.8922 7.10096 10.2184C7.10096 9.54453 7.64722 8.99827 8.32107 8.99827C8.99491 8.99827 9.54117 9.54453 9.54117 10.2184ZM20.3938 6.12879V1.25916C21.3096 1.68827 21.9426 2.61621 21.9426 3.69297C21.9426 4.77032 21.3092 5.70006 20.3938 6.12879Z" fill="#1C1E21"/>
<path d="M29.821 6.75977H33.408V23.8178H29.821V6.75977Z" fill="#1C1E21"/>
<path d="M35.6439 9.14979C35.2307 8.76736 35.0232 8.29112 35.0232 7.72468C35.0232 7.15825 35.2307 6.68201 35.6439 6.29958C36.0571 5.91714 36.5948 5.72412 37.2533 5.72412C37.9119 5.72412 38.4496 5.90812 38.8628 6.27613C39.276 6.64413 39.4835 7.10413 39.4835 7.65614C39.4835 8.25324 39.276 8.74752 38.8628 9.13897C38.4496 9.53042 37.9119 9.72525 37.2533 9.72525C36.5948 9.72525 36.0571 9.53403 35.6439 9.14979ZM35.4598 11.448H39.0468V23.8176H35.4598V11.448Z" fill="#1C1E21"/>
<path d="M51.5494 12.0579C52.4931 12.5865 53.231 13.3297 53.7687 14.2876C54.3046 15.2455 54.5734 16.3603 54.5734 17.6321C54.5734 18.9039 54.3046 20.0187 53.7687 20.9766C53.231 21.9345 52.4931 22.6777 51.5494 23.2062C50.6075 23.7348 49.561 24 48.4099 24C46.7084 24 45.4129 23.4642 44.5233 22.3909V23.816H41.0969V6.75977H44.6839V12.7597C45.5879 11.7639 46.8293 11.266 48.4099 11.266C49.5592 11.266 50.6057 11.5294 51.5494 12.0597V12.0579ZM50.0554 20.1269C50.6454 19.5064 50.9413 18.6748 50.9413 17.6321C50.9413 16.5894 50.6454 15.7578 50.0554 15.1372C49.4654 14.5167 48.7094 14.2064 47.791 14.2064C46.8726 14.2064 46.1166 14.5167 45.5265 15.1372C44.9365 15.7578 44.6406 16.5894 44.6406 17.6321C44.6406 18.6748 44.9365 19.5064 45.5265 20.1269C46.1166 20.7475 46.8726 21.0578 47.791 21.0578C48.7094 21.0578 49.4654 20.7475 50.0554 20.1269Z" fill="#1C1E21"/>
<path d="M55.6814 6.75977H59.2684V23.8178H55.6814V6.75977Z" fill="#1C1E21"/>
<path d="M75.8367 18.9655V11.4888H79.5985V23.8153H76.0063V21.7233H75.883C75.6209 22.4109 75.1738 22.957 74.5417 23.3618C73.9147 23.7617 73.1567 23.9616 72.2676 23.9616C71.4608 23.9616 70.7516 23.7861 70.1401 23.435C69.5285 23.0838 69.0532 22.5937 68.714 21.9647C68.3748 21.3307 68.2026 20.5895 68.1975 19.7409V11.4888H71.967V19.0387C71.9721 19.6483 72.1417 20.1286 72.4758 20.4797C72.8098 20.8308 73.2646 21.0064 73.8402 21.0064C74.2153 21.0064 74.5519 20.9284 74.85 20.7723C75.1532 20.6114 75.3922 20.3798 75.5669 20.0774C75.7468 19.7702 75.8367 19.3996 75.8367 18.9655Z" fill="#1C1E21"/>
<path d="M59.411 16.2784V23.8253H55.6953L55.6953 6.82129H59.2895V13.5054H59.4186C59.682 12.8109 60.1126 12.268 60.7104 11.8768C61.3132 11.4855 62.0503 11.2899 62.9216 11.2899C63.7422 11.2899 64.4565 11.4659 65.0644 11.8181C65.6723 12.1653 66.1434 12.6568 66.4777 13.2926C66.8171 13.9284 66.9843 14.6718 66.9792 15.5228V23.8253H63.2635V16.227C63.2686 15.601 63.1065 15.1119 62.7772 14.7598C62.4479 14.4077 61.9844 14.2316 61.3867 14.2316C60.9966 14.2316 60.6521 14.3148 60.3533 14.481C60.0594 14.6424 59.829 14.8747 59.6618 15.178C59.4997 15.4812 59.4161 15.848 59.411 16.2784Z" fill="#1C1E21"/>
<path d="M92.0086 12.0579C92.9523 12.5865 93.6903 13.3297 94.2279 14.2876C94.7638 15.2455 95.0327 16.3603 95.0327 17.6321C95.0327 18.9039 94.7638 20.0187 94.2279 20.9766C93.6903 21.9345 92.9523 22.6777 92.0086 23.2062C91.0668 23.7348 90.0203 24 88.8691 24C87.1676 24 85.8721 23.4642 84.9826 22.3909V23.816H81.5562V6.75977H85.1432V12.7597C86.0471 11.7639 87.2885 11.266 88.8691 11.266C90.0184 11.266 91.065 11.5294 92.0086 12.0597V12.0579ZM90.5146 20.1269C91.1047 19.5064 91.4006 18.6748 91.4006 17.6321C91.4006 16.5894 91.1047 15.7578 90.5146 15.1372C89.9246 14.5167 89.1686 14.2064 88.2502 14.2064C87.3318 14.2064 86.5758 14.5167 85.9858 15.1372C85.3958 15.7578 85.0998 16.5894 85.0998 17.6321C85.0998 18.6748 85.3958 19.5064 85.9858 20.1269C86.5758 20.7475 87.3318 21.0578 88.2502 21.0578C89.1686 21.0578 89.9246 20.7475 90.5146 20.1269Z" fill="#1C1E21"/>
</svg>
